<svg xmlns="http://www.w3.org/2000/svg" viewBox="0 0 61 61" width="61" height="61">
	<style>
		tspan { white-space:pre }
		.shp0 { fill: #b88b58 } 
	</style>
	<g id="03 SERVICES (4 items) black">
		<g id="03">
			<path id="Clock" class="shp0" d="M30.23 59.58C14.26 59.58 1.32 46.63 1.32 30.66C1.32 14.69 14.26 1.75 30.23 1.75C46.2 1.75 59.14 14.69 59.14 30.66C59.14 46.63 46.2 59.58 30.23 59.58ZM30.23 5.36C16.26 5.36 4.93 16.69 4.93 30.66C4.93 44.64 16.26 55.96 30.23 55.96C44.2 55.96 55.53 44.64 55.53 30.66C55.53 16.69 44.2 5.36 30.23 5.36ZM48.3 32.47L48.3 28.86L51.92 28.86L51.92 32.47L48.3 32.47ZM43.24 45.47L40.68 42.91L43.24 40.36L45.79 42.91L43.24 45.47ZM41.21 16.7L43.71 14.19L46.21 16.7L43.71 19.21L41.21 16.7ZM28.42 48.73L32.04 48.73L32.04 52.35L28.42 52.35L28.42 48.73ZM30.23 32.51L13.96 32.51C12.97 32.51 12.16 31.7 12.16 30.71C12.16 29.71 12.97 28.9 13.96 28.9L28.42 28.9L28.42 10.79C28.42 9.79 29.23 8.98 30.23 8.98C31.23 8.98 32.04 9.79 32.04 10.79L32.04 30.71C32.04 31.7 31.23 32.51 30.23 32.51ZM13.72 16.79L16.27 14.23L18.83 16.79L16.27 19.35L13.72 16.79ZM18.48 43.01L15.98 45.52L13.48 43.01L15.98 40.5L18.48 43.01Z" />
		</g>
	</g>
</svg>