<svg xmlns="http://www.w3.org/2000/svg" viewBox="0 0 61 60" width="61" height="60">
	<style>
		tspan { white-space:pre }
		.shp0 { fill: #b88b58 } 
	</style>
	<g id="03 SERVICES (4 items) black">
		<g id="01">
			<path id="Quality" class="shp0" d="M59.55 48.06C59.55 48.06 53.83 49.21 48.03 50.4C44.17 54.7 40.32 59 40.32 59L32.03 44.86C31.56 44.89 31.09 44.93 30.62 44.93C30.14 44.93 29.68 44.89 29.21 44.86L20.92 59C20.92 59 17.07 54.7 13.2 50.4C7.4 49.21 1.69 48.06 1.69 48.06L10.7 32.68C9.25 29.77 8.41 26.51 8.41 23.05C8.41 10.97 18.35 1.17 30.62 1.17C42.88 1.17 52.82 10.97 52.82 23.05C52.82 26.51 51.99 29.77 50.53 32.68L59.55 48.06ZM40.75 52.44C40.75 52.44 43.52 49.81 46.13 47.27C49.83 46.22 53.57 45.15 53.57 45.15L48.33 36.21C45.31 40.15 40.97 43.04 35.96 44.26L40.75 52.44ZM7.67 45.15C7.67 45.15 11.4 46.22 15.1 47.27C17.71 49.81 20.49 52.44 20.49 52.44L25.28 44.26C20.26 43.04 15.93 40.15 12.91 36.21L7.67 45.15ZM30.62 4.76C20.65 4.76 12.56 12.86 12.56 22.85C12.56 32.84 20.65 40.94 30.62 40.94C40.59 40.94 48.67 32.84 48.67 22.85C48.67 12.86 40.59 4.76 30.62 4.76ZM30.62 35.51C23.63 35.51 17.97 29.84 17.97 22.86C17.97 15.87 23.63 10.21 30.62 10.21C37.6 10.21 43.27 15.87 43.27 22.86C43.27 29.84 37.6 35.51 30.62 35.51ZM30.62 13.82C25.63 13.82 21.58 17.87 21.58 22.86C21.58 27.85 25.63 31.89 30.62 31.89C35.61 31.89 39.65 27.85 39.65 22.86C39.65 17.87 35.61 13.82 30.62 13.82Z" />
		</g>
	</g>
</svg>