<svg xmlns="http://www.w3.org/2000/svg" viewBox="0 0 25 28" width="25" height="28">
	<style>
		tspan { white-space:pre }
		.shp0 { fill: #bdbdbd } 
	</style>
	<g id="10 SHARE">
		<path id="Share" class="shp0" d="M19.39 9.63C17.27 9.63 15.54 7.92 15.54 5.82C15.54 3.71 17.27 2 19.39 2C21.52 2 23.25 3.71 23.25 5.82C23.25 7.92 21.52 9.63 19.39 9.63ZM19.39 3.55C18.13 3.55 17.1 4.56 17.1 5.82C17.1 7.06 18.13 8.08 19.39 8.08C20.65 8.08 21.68 7.06 21.68 5.82C21.68 4.56 20.65 3.55 19.39 3.55ZM5.43 18.11C3.3 18.11 1.57 16.4 1.57 14.3C1.57 12.19 3.3 10.48 5.43 10.48C7.55 10.48 9.28 12.19 9.28 14.3C9.28 16.4 7.55 18.11 5.43 18.11ZM5.43 12.03C4.16 12.03 3.14 13.05 3.14 14.3C3.14 15.55 4.16 16.56 5.43 16.56C6.69 16.56 7.71 15.55 7.71 14.3C7.71 13.05 6.69 12.03 5.43 12.03ZM19.39 26.79C17.27 26.79 15.54 25.07 15.54 22.97C15.54 20.87 17.27 19.15 19.39 19.15C21.52 19.15 23.25 20.87 23.25 22.97C23.25 25.07 21.52 26.79 19.39 26.79ZM19.39 20.7C18.13 20.7 17.1 21.72 17.1 22.97C17.1 24.22 18.13 25.24 19.39 25.24C20.65 25.24 21.68 24.22 21.68 22.97C21.68 21.72 20.65 20.7 19.39 20.7ZM16.78 22.17C16.64 22.17 16.49 22.13 16.36 22.05L7.59 16.58C7.23 16.35 7.12 15.87 7.35 15.51C7.58 15.15 8.06 15.04 8.43 15.27L17.2 20.74C17.56 20.97 17.67 21.45 17.44 21.81C17.29 22.04 17.04 22.17 16.78 22.17ZM7.95 13.4C7.68 13.4 7.42 13.26 7.27 13.01C7.06 12.64 7.18 12.17 7.56 11.96L16.42 6.87C16.79 6.65 17.27 6.78 17.48 7.15C17.7 7.52 17.57 7.99 17.2 8.21L8.34 13.3C8.22 13.37 8.08 13.4 7.95 13.4Z" />
	</g>
</svg>