<svg xmlns="http://www.w3.org/2000/svg" viewBox="0 0 61 60" width="61" height="60">
	<style>
		tspan { white-space:pre }
		.shp0 { fill: #b88b58 } 
	</style>
	<g id="03 SERVICES (4 items) black">
		<g id="04">
			<path id="Support" class="shp0" d="M30.18 51.77C28.33 51.77 26.52 51.6 24.77 51.31L12.1 59L12.1 46.2C5.5 41.57 1.26 34.46 1.26 26.47C1.26 12.5 14.21 1.17 30.18 1.17C46.14 1.17 59.09 12.5 59.09 26.47C59.09 40.44 46.14 51.77 30.18 51.77ZM30.18 4.79C16.2 4.79 4.88 14.49 4.88 26.47C4.88 33.82 9.15 40.3 15.67 44.22L15.56 52.61L24.07 47.49C26.03 47.91 28.07 48.16 30.18 48.16C44.15 48.16 55.48 38.45 55.48 26.47C55.48 14.49 44.15 4.79 30.18 4.79ZM44.63 30.09C42.64 30.09 41.02 28.47 41.02 26.47C41.02 24.47 42.64 22.86 44.63 22.86C46.63 22.86 48.25 24.47 48.25 26.47C48.25 28.47 46.63 30.09 44.63 30.09ZM30.18 30.09C28.18 30.09 26.56 28.47 26.56 26.47C26.56 24.47 28.18 22.86 30.18 22.86C32.17 22.86 33.79 24.47 33.79 26.47C33.79 28.47 32.17 30.09 30.18 30.09ZM15.72 30.09C13.72 30.09 12.1 28.47 12.1 26.47C12.1 24.47 13.72 22.86 15.72 22.86C17.71 22.86 19.33 24.47 19.33 26.47C19.33 28.47 17.71 30.09 15.72 30.09Z" />
		</g>
	</g>
</svg>